<svg xmlns="http://www.w3.org/2000/svg" width="640px" height="400px" viewBox="0 0 640 400">
  <path fill="#5F9EA0" d="M620,275c-14.7,9.2-54.7,38.1-70,40c-29.5,3.8-48.7-22.5-80-5c-47.5,26.5-96.3-26.5-150-10
    c-66.3,20.4-112,45.4-180,15c-55-24.6-73.3-28.1-120,5v60h600V275z"/>
  <polygon fill="#E04F55" points="20,135 55,75 85,135 125,90 155,125 240,80 300,145 340,90 400,125 445,70 485,115 535,80 570,140 620,85 620,50 20,50"/>

  <g fill="none" stroke="#777" stroke-width="6">
    <rect x="20" y="20" width="600" height="360"/>
    <line x1="20" y1="50" x2="620" y2="50"/>
  </g>
  <g fill="#777">
    <circle cx="35" cy="35" r="5"/>
    <circle cx="50" cy="35" r="5"/>
    <circle cx="64" cy="35" r="5"/>
  </g>
  <g fill="none" stroke="silver" stroke-width="8">
    <line x1="160" y1="170" x2="480" y2="170"/>
    <line x1="140" y1="190" x2="500" y2="190"/>
    <line x1="170" y1="210" x2="470" y2="210"/>
    <line x1="150" y1="230" x2="490" y2="230"/>
    <line x1="180" y1="250" x2="460" y2="250"/>
  </g>
</svg>
