<svg xmlns="http://www.w3.org/2000/svg" width="640px" height="100px" viewBox="0 0 640 100">
  <path fill="silver" d="M574.3,61.7c2.1-8.4,10.1-16.8,6.2-25.8c-4.3-9.8-19.2-11.4-26.3-3.9c-7.7,8.1-0.7,17.3,2.9,24.9c1.5,3.2-0.4,6.8,2.5,9.7C564.3,71.3,572.8,67.4,574.3,61.7C574.5,61.1,573.7,63.8,574.3,61.7z M557.9,41.6c0.2-4.7,5.9-4.5,5.6,0.3C563.3,46.6,557.7,46.3,557.9,41.6C558,39.4,557.8,43.8,557.9,41.6z M565.6,58.9c-5.2-0.2-4.6-11.5,0.5-11.3C571.2,47.9,570.7,59.2,565.6,58.9C563.4,58.8,567.7,59,565.6,58.9z M571.8,46c-3.9-0.2-3.4-7.7,0.4-7.5C576,38.8,575.6,46.2,571.8,46C570.2,45.9,573.5,46.1,571.8,46z"/>
  <path fill="none" stroke="#5F9EA0" stroke-width="10" d="M20,80c29.5-29.7,82.3-66.3,125-70c69.7-6-17.7,70.2,5,80s84-54.4,125-60c29.1-4-17.5,57.7,40,35c16.6-6.5,78.1-46.2,85-15c4.9,22.1,44.7-6.3,75-5c33.7,1.5,101.9,46,135,11"/>
</svg>
