<svg xmlns="http://www.w3.org/2000/svg" width="750" height="1200" viewBox="0 0 750.00001 1200">
  <g fill="olive">
    <path d="M313.35 576.552h200v620h-200z"/>
    <path d="M124.78 702.266h231.428v34.286h-231.43z"/>
  </g>
  <path fill="green" d="M350.77 73.945a110 104.286 78.6 0 0-81.292 87.874 110 104.286 78.6 0 0-79.41-17.582A110 104.286 78.6 0 0 109.58 272.68a110 104.286 78.6 0 0 20.173 45.485 110 104.286 78.6 0 0-31.147 102.46 110 104.286 78.6 0 0 69.808 82.92 110 104.286 78.6 0 0-.124 45.848 110 104.286 78.6 0 0 123.97 87.217 110 104.286 78.6 0 0 37.182-16 110 104.286 78.6 0 0 109.68 50.51 110 104.286 78.6 0 0 48.43-25.146 110 104.286 78.6 0 0 49.03 2.58 110 104.286 78.6 0 0 72.357-58.33 110 104.286 78.6 0 0 23.368-1.777 110 104.286 78.6 0 0 80.486-128.442 110 104.286 78.6 0 0-21.1-46.808 110 104.286 78.6 0 0 17.528-86.545 110 104.286 78.6 0 0-84.482-87.08 110 104.286 78.6 0 0-.89-39.982 110 104.286 78.6 0 0-123.97-87.217 110 104.286 78.6 0 0-37.243 16.047A110 104.286 78.6 0 0 350.77 73.945z"/>
  <g transform="translate(-206.65 89.904)">
    <g fill="#e3dedb">
      <ellipse cx="430" cy="882.362" ry="141.429" rx="67.143"/>
      <ellipse cx="477.143" cy="883.791" ry="144.286" rx="67.143"/>
      <path d="M425.714 743.79h57.143v271.43h-57.143z"/>
    </g>
    <ellipse cx="475.714" cy="893.791" fill="#fff" rx="15.714" ry="81.429"/>
  </g>
</svg>
