<?xml version="1.0" encoding="UTF-8" standalone="no"?>
<svg
   xmlns:dc="http://purl.org/dc/elements/1.1/"
   xmlns:cc="http://creativecommons.org/ns#"
   xmlns:rdf="http://www.w3.org/1999/02/22-rdf-syntax-ns#"
   xmlns:svg="http://www.w3.org/2000/svg"
   xmlns="http://www.w3.org/2000/svg"
   version="1.1"
   id="svg3712"
   viewBox="0 0 750.00001 1200"
   height="1200"
   width="750">
  <defs
     id="defs3714" />
  <metadata
     id="metadata3717">
    <rdf:RDF>
      <cc:Work
         rdf:about="">
        <dc:format>image/svg+xml</dc:format>
        <dc:type
           rdf:resource="http://purl.org/dc/dcmitype/StillImage" />
        <dc:title></dc:title>
      </cc:Work>
    </rdf:RDF>
  </metadata>
  <g
     transform="translate(0,147.63784)"
     id="layer1">
    <g
       transform="translate(-729.5073,-203.44773)"
       id="g3424">
      <rect
         style="fill:#808000"
         id="rect3419"
         width="200"
         height="620"
         x="1042.8572"
         y="632.36218" />
      <rect
         style="fill:#808000"
         id="rect3422"
         width="231.42857"
         height="34.285713"
         x="854.28571"
         y="758.07648" />
    </g>
    <path
       id="path3336"
       d="M 350.77133,-73.693141 A 110,104.28572 78.6 0 0 269.47791,14.181029 110,104.28572 78.6 0 0 190.06723,-3.3993914 110,104.28572 78.6 0 0 109.5818,125.04317 a 110,104.28572 78.6 0 0 20.17343,45.48414 110,104.28572 78.6 0 0 -31.14746,102.46116 110,104.28572 78.6 0 0 69.80797,82.91989 110,104.28572 78.6 0 0 -0.12404,45.84699 110,104.28572 78.6 0 0 123.97003,87.21711 110,104.28572 78.6 0 0 37.1822,-16.00097 110,104.28572 78.6 0 0 109.679,50.51105 110,104.28572 78.6 0 0 48.4303,-25.14685 110,104.28572 78.6 0 0 49.032,2.58006 110,104.28572 78.6 0 0 72.3553,-58.32926 110,104.28572 78.6 0 0 23.3676,-1.77689 110,104.28572 78.6 0 0 80.4854,-128.44256 110,104.28572 78.6 0 0 -21.0997,-46.80763 110,104.28572 78.6 0 0 17.5285,-86.54512 110,104.28572 78.6 0 0 -84.4822,-87.080001 110,104.28572 78.6 0 0 -0.889,-39.98222 110,104.28572 78.6 0 0 -123.9701,-87.2171 110,104.28572 78.6 0 0 -37.2445,16.04738 110,104.28572 78.6 0 0 -111.8652,-54.47549 z"
       style="fill:#008000" />
    <g
       transform="translate(-206.65013,-57.733441)"
       id="g3454">
      <g
         id="g3447"
         style="fill:#e3dedb">
        <ellipse
           ry="141.42857"
           rx="67.14286"
           cy="882.36218"
           cx="430"
           id="path3428"
           style="fill:#e3dedb" />
        <ellipse
           ry="144.28572"
           rx="67.14286"
           cy="883.79077"
           cx="477.14285"
           id="path3428-6"
           style="fill:#e3dedb" />
        <rect
           y="743.79071"
           x="425.71429"
           height="271.42862"
           width="57.142853"
           id="rect3445"
           style="fill:#e3dedb" />
      </g>
      <ellipse
         style="fill:#ffffff"
         id="path3452"
         cx="475.71429"
         cy="893.79071"
         rx="15.714286"
         ry="81.428574" />
    </g>
  </g>
</svg>
