<svg xmlns="http://www.w3.org/2000/svg"
     width="500px" height="500px" viewBox="0 0 500 500">

  <g id="victor">

    <path id="body" fill="CadetBlue" d="M155,235c-2.9,52.1,84.4,89.9,125,90c79,0.3,60.6-100.3,60-155c-0.6-54.7,34.6-117.6-95-105
        C156.2,73.7,157.6,188.4,155,235z"/>

    <g id="arms-and-legs" fill="none" stroke="CadetBlue" stroke-width="20" stroke-linecap="round">
      <path id="left-arm" d="M50,150c0.1,34.8,61.5,117,120,70"/>
      <path id="right-arm" d="M330,185c30-25,90-93,130-35"/>
      <path id="left-leg" d="M120,450c0,0,40,5.7,50,0s40-170,40-170"/>
      <path id="right-leg" d="M260,310c0,0-7.3,121,0,125s40,0,40,0"/>
    </g>

    <path id="mouth" fill="#FFFFFF" d="M260,280c25.6,0.1,37.7-45.8,35-50s-28.6,7.3-40,10c-10,2.3-29.1-4.1-35,0S242,279.9,260,280z"/>

    <g id="eyes">
      <path fill="#FFFFFF" d="M201.4,178.8c-0.8,19.5,23.6,37.9,39.2,19.2c14.7-17.8,9.4-76.4-21-74C205.1,125.1,202.2,158.1,201.4,178.8z"/>
      <circle fill="CadetBlue" cx="237" cy="155" r="15"/>
      <path fill="#FFFFFF" d="M260.4,178.8c-0.8,19.5,23.6,37.9,39.2,19.2c14.7-17.8,9.4-76.4-21-74C264.1,125.1,261.2,158.1,260.4,178.8z"/>
      <circle fill="CadetBlue" cx="296" cy="155" r="15"/>
    </g>

  </g>

</svg>
