<?xml version="1.0" encoding="UTF-8"?>
<svg width="967px" height="973px" viewBox="0 0 967 973" version="1.1" xmlns="http://www.w3.org/2000/svg" xmlns:xlink="http://www.w3.org/1999/xlink">
    <!-- Generator: Sketch 42 (36781) - http://www.bohemiancoding.com/sketch -->
    <title>optimus</title>
    <desc>Created with Sketch.</desc>
    <defs></defs>
    <g id="Page-1" stroke="none" stroke-width="1" fill="none" fill-rule="evenodd">
        <g id="optimus" fill="#000000">
            <path d="M0,57 L155.695312,62.6796875 L175.054688,147.765625 L358.285156,272.421875 L385.132812,457.535156 L202.765625,437.296875 L52.3867187,334.886719 L0,57 Z M72.84375,133.488281 L78.8632812,179.945312 L305.992188,321.082031 L303.628906,283.132812 L72.84375,133.488281 Z M90.3632812,221.1875 L94.5273438,266.859375 L319.398438,409.210938 L312.648438,364.941406 L90.3632812,221.1875 Z" id="left-eye"></path>
            <path d="M582,57 L737.695312,62.6796875 L757.054688,147.765625 L940.285156,272.421875 L967.132812,457.535156 L784.765625,437.296875 L634.386719,334.886719 L582,57 Z M654.84375,133.488281 L660.863281,179.945312 L887.992188,321.082031 L885.628906,283.132812 L654.84375,133.488281 Z M672.363281,221.1875 L676.527344,266.859375 L901.398438,409.210938 L894.648438,364.941406 L672.363281,221.1875 Z" id="right-eye" transform="translate(774.566406, 257.267578) scale(-1, 1) translate(-774.566406, -257.267578) "></path>
            <path d="M192.5,66.28125 C433.632812,-58.4414063 676.59375,24.8828125 774.65625,65.0546875 C758.914062,132.707031 758.914063,132.707031 758.914063,132.707031 L485.820312,310.75 L206.125,139.929688 C206.125,139.929688 206.125,139.929688 192.5,66.28125 Z M334.679688,110.886719 L485.925781,203.21875 L630.777344,109.898438 L334.679688,110.886719 Z" id="forehead"></path>
            <path d="M384.054688,285.085938 L482.679687,352.59375 L580.832031,283.523438 C580.832031,283.523438 530.398438,504.066406 549.558594,718.046875 C395.820312,719.421875 450.28125,719.421875 420.953125,719.421875 C432.882812,447.742188 384.054688,285.085938 384.054688,285.085938 Z" id="nose"></path>
            <polygon id="left-cheek" points="69 383 164.675781 446.308594 164.015625 485.238281 239.785156 539.160156 242.445312 886.570312 87.5546875 756.917969"></polygon>
            <polygon id="right-cheek" transform="translate(809.722656, 634.785156) scale(-1, 1) translate(-809.722656, -634.785156) " points="723 383 818.675781 446.308594 818.015625 485.238281 893.785156 539.160156 896.445312 886.570312 741.554688 756.917969"></polygon>
            <polygon id="jaw" points="408.738281 854.003906 561.167969 853.347656 600.992188 972.78125 365.792969 973.347656"></polygon>
            <polygon id="mouth" points="273.625 539.976562 390.691406 489.375 392.476562 746.917969 574.722656 747.019531 574.164062 487.484375 693.414062 540.703125 691.480469 911.824219 637.011719 963.882812 577.523438 811.660156 387.089844 810.859375 332.699219 963.300781 274.75 913.109375"></polygon>
        </g>
    </g>
</svg>